<mxfile host="app.diagrams.net" modified="2021-08-28T09:04:48.321Z" agent="5.0 (Windows NT 10.0; Win64; x64) AppleWebKit/537.36 (KHTML, like Gecko) Chrome/92.0.4515.159 Safari/537.36" etag="tEhktptODVH68aoGs9Ci" version="15.0.3" type="github">
  <diagram name="Page-1" id="efa7a0a1-bf9b-a30e-e6df-94a7791c09e9">
    <mxGraphModel dx="677" dy="1505" grid="1" gridSize="10" guides="1" tooltips="1" connect="1" arrows="1" fold="1" page="1" pageScale="1" pageWidth="826" pageHeight="1169" background="none" math="0" shadow="0">
      <root>
        <mxCell id="0" />
        <mxCell id="1" parent="0" />
        <mxCell id="FmEWhr4WUyYqQKIRgEy8-120" style="edgeStyle=elbowEdgeStyle;curved=1;sketch=1;orthogonalLoop=1;jettySize=auto;html=1;exitX=1;exitY=0.5;exitDx=0;exitDy=0;entryX=0;entryY=0.5;entryDx=0;entryDy=0;startArrow=openThin;startFill=0;endArrow=ERmany;endFill=0;" edge="1" parent="1" source="FmEWhr4WUyYqQKIRgEy8-114" target="FmEWhr4WUyYqQKIRgEy8-117">
          <mxGeometry relative="1" as="geometry" />
        </mxCell>
        <mxCell id="FmEWhr4WUyYqQKIRgEy8-114" value="&lt;p style=&quot;margin: 0px ; margin-top: 4px ; text-align: center ; text-decoration: underline&quot;&gt;Postcode&lt;/p&gt;&lt;hr&gt;&lt;p style=&quot;margin: 0px ; margin-left: 8px&quot;&gt;&lt;span&gt;&lt;font color=&quot;#000000&quot;&gt;postcode&lt;/font&gt;&lt;/span&gt;&lt;/p&gt;&lt;p style=&quot;margin: 0px ; margin-left: 8px&quot;&gt;&lt;font color=&quot;#000000&quot;&gt;latitude&lt;/font&gt;&lt;/p&gt;&lt;p style=&quot;margin: 0px ; margin-left: 8px&quot;&gt;&lt;font color=&quot;#000000&quot;&gt;longitude&lt;/font&gt;&lt;/p&gt;&lt;p style=&quot;margin: 0px ; margin-left: 8px&quot;&gt;&lt;font color=&quot;#cc0066&quot;&gt;googleLatitude&lt;/font&gt;&lt;/p&gt;&lt;p style=&quot;margin: 0px ; margin-left: 8px&quot;&gt;&lt;font color=&quot;#cc0066&quot;&gt;googleLongitude&lt;/font&gt;&lt;/p&gt;&lt;p style=&quot;margin: 0px ; margin-left: 8px&quot;&gt;&lt;font color=&quot;#cc0066&quot;&gt;locality&lt;/font&gt;&lt;/p&gt;&lt;p style=&quot;margin: 0px ; margin-left: 8px&quot;&gt;&lt;font color=&quot;#cc0066&quot;&gt;stage&lt;/font&gt;&lt;/p&gt;&lt;p style=&quot;margin: 0px ; margin-left: 8px&quot;&gt;&lt;font color=&quot;#cc0066&quot;&gt;sa3&lt;/font&gt;&lt;/p&gt;&lt;p style=&quot;margin: 0px ; margin-left: 8px&quot;&gt;&lt;font color=&quot;#cc0066&quot;&gt;sa3Name&lt;/font&gt;&lt;/p&gt;&lt;p style=&quot;margin: 0px ; margin-left: 8px&quot;&gt;&lt;font color=&quot;#cc0066&quot;&gt;sa4&lt;/font&gt;&lt;/p&gt;&lt;p style=&quot;margin: 0px ; margin-left: 8px&quot;&gt;&lt;font color=&quot;#000000&quot;&gt;sa4Name&lt;/font&gt;&lt;/p&gt;&lt;p style=&quot;margin: 0px ; margin-left: 8px&quot;&gt;&lt;font color=&quot;#000000&quot;&gt;--------------------&lt;/font&gt;&lt;/p&gt;&lt;p style=&quot;margin: 0px ; margin-left: 8px&quot;&gt;&lt;font color=&quot;#000000&quot;&gt;postcode is unique&lt;/font&gt;&lt;/p&gt;" style="verticalAlign=top;align=left;overflow=fill;fontSize=12;fontFamily=Helvetica;html=1;strokeColor=#003366;shadow=1;fillColor=#D4E1F5;fontColor=#003366" vertex="1" parent="1">
          <mxGeometry x="100" y="-1120" width="160" height="220" as="geometry" />
        </mxCell>
        <mxCell id="FmEWhr4WUyYqQKIRgEy8-116" value="&lt;p style=&quot;margin: 0px ; margin-top: 4px ; text-align: center ; text-decoration: underline&quot;&gt;Warehouse&lt;/p&gt;&lt;hr&gt;&lt;p style=&quot;margin: 0px ; margin-left: 8px&quot;&gt;&lt;font color=&quot;#000000&quot;&gt;category&lt;/font&gt;&lt;/p&gt;&lt;p style=&quot;margin: 0px ; margin-left: 8px&quot;&gt;&lt;font color=&quot;#000000&quot;&gt;latitude&lt;/font&gt;&lt;/p&gt;&lt;p style=&quot;margin: 0px ; margin-left: 8px&quot;&gt;&lt;font color=&quot;#000000&quot;&gt;longitude&lt;/font&gt;&lt;/p&gt;&lt;p style=&quot;margin: 0px ; margin-left: 8px&quot;&gt;&lt;font color=&quot;#000000&quot;&gt;localDistanceKm&lt;/font&gt;&lt;/p&gt;&lt;p style=&quot;margin: 0px ; margin-left: 8px&quot;&gt;&lt;font color=&quot;#000000&quot;&gt;localDeliveryCharges&lt;/font&gt;&lt;/p&gt;&lt;p style=&quot;margin: 0px ; margin-left: 8px&quot;&gt;&lt;font color=&quot;#000000&quot;&gt;scheduledRunCharges&lt;/font&gt;&lt;/p&gt;" style="verticalAlign=top;align=left;overflow=fill;fontSize=12;fontFamily=Helvetica;html=1;strokeColor=#003366;shadow=1;fillColor=#D4E1F5;fontColor=#003366" vertex="1" parent="1">
          <mxGeometry x="422.99999999999994" y="-790" width="160" height="120" as="geometry" />
        </mxCell>
        <mxCell id="FmEWhr4WUyYqQKIRgEy8-117" value="&lt;p style=&quot;margin: 0px ; margin-top: 4px ; text-align: center ; text-decoration: underline&quot;&gt;LocalWarehouse&lt;/p&gt;&lt;hr&gt;&lt;p style=&quot;margin: 0px ; margin-left: 8px&quot;&gt;&lt;font color=&quot;#000000&quot;&gt;postcode&lt;/font&gt;&lt;/p&gt;&lt;p style=&quot;margin: 0px ; margin-left: 8px&quot;&gt;&lt;font color=&quot;#000000&quot;&gt;warehouse&lt;/font&gt;&lt;/p&gt;&lt;p style=&quot;margin: 0px ; margin-left: 8px&quot;&gt;&lt;font color=&quot;#cc0066&quot;&gt;carrierCode&lt;/font&gt;&lt;/p&gt;&lt;p style=&quot;margin: 0px ; margin-left: 8px&quot;&gt;&lt;font color=&quot;#cc0066&quot;&gt;local&lt;/font&gt;&lt;/p&gt;&lt;p style=&quot;margin: 0px ; margin-left: 8px&quot;&gt;&lt;font color=&quot;#cc0066&quot;&gt;state&lt;/font&gt;&lt;/p&gt;&lt;p style=&quot;margin: 0px ; margin-left: 8px&quot;&gt;&lt;font color=&quot;#cc0066&quot;&gt;zone&lt;/font&gt;&lt;/p&gt;&lt;p style=&quot;margin: 0px ; margin-left: 8px&quot;&gt;&lt;font color=&quot;#cc0066&quot;&gt;suburb&lt;/font&gt;&lt;/p&gt;&lt;p style=&quot;margin: 0px ; margin-left: 8px&quot;&gt;&lt;font color=&quot;#000000&quot;&gt;--------------------&lt;/font&gt;&lt;/p&gt;&lt;p style=&quot;margin: 0px ; margin-left: 8px&quot;&gt;&lt;font color=&quot;#000000&quot;&gt;postcode + warehouse is unique&lt;/font&gt;&lt;/p&gt;" style="verticalAlign=top;align=left;overflow=fill;fontSize=12;fontFamily=Helvetica;html=1;strokeColor=#003366;shadow=1;fillColor=#D4E1F5;fontColor=#003366" vertex="1" parent="1">
          <mxGeometry x="409.5" y="-1092.5" width="187" height="165" as="geometry" />
        </mxCell>
        <mxCell id="FmEWhr4WUyYqQKIRgEy8-118" value="&lt;p style=&quot;margin: 0px ; margin-top: 4px ; text-align: center ; text-decoration: underline&quot;&gt;ScheduleRun&lt;/p&gt;&lt;hr&gt;&lt;p style=&quot;margin: 0px ; margin-left: 8px&quot;&gt;&lt;font color=&quot;#000000&quot;&gt;region&lt;/font&gt;&lt;/p&gt;&lt;p style=&quot;margin: 0px ; margin-left: 8px&quot;&gt;&lt;font color=&quot;#000000&quot;&gt;warehouse&lt;/font&gt;&lt;/p&gt;&lt;p style=&quot;margin: 0px ; margin-left: 8px&quot;&gt;&lt;font color=&quot;#000000&quot;&gt;crontabs&lt;/font&gt;&lt;/p&gt;&lt;p style=&quot;margin: 0px ; margin-left: 8px&quot;&gt;&lt;font color=&quot;#000000&quot;&gt;------------------------------&lt;/font&gt;&lt;/p&gt;&lt;p style=&quot;margin: 0px ; margin-left: 8px&quot;&gt;&lt;font color=&quot;#000000&quot;&gt;region + warehouse is unique&lt;/font&gt;&lt;/p&gt;" style="verticalAlign=top;align=left;overflow=fill;fontSize=12;fontFamily=Helvetica;html=1;strokeColor=#003366;shadow=1;fillColor=#D4E1F5;fontColor=#003366" vertex="1" parent="1">
          <mxGeometry x="95" y="-785" width="170" height="110" as="geometry" />
        </mxCell>
        <mxCell id="FmEWhr4WUyYqQKIRgEy8-121" style="edgeStyle=elbowEdgeStyle;sketch=1;orthogonalLoop=1;jettySize=auto;html=1;startArrow=openThin;startFill=0;endArrow=ERmany;endFill=0;entryX=0.5;entryY=1;entryDx=0;entryDy=0;rounded=0;exitX=0.5;exitY=0;exitDx=0;exitDy=0;" edge="1" parent="1" source="FmEWhr4WUyYqQKIRgEy8-116" target="FmEWhr4WUyYqQKIRgEy8-117">
          <mxGeometry relative="1" as="geometry">
            <mxPoint x="203" y="-700" as="sourcePoint" />
            <mxPoint x="523" y="-910" as="targetPoint" />
            <Array as="points">
              <mxPoint x="503" y="-840" />
            </Array>
          </mxGeometry>
        </mxCell>
        <mxCell id="FmEWhr4WUyYqQKIRgEy8-122" style="edgeStyle=elbowEdgeStyle;sketch=1;orthogonalLoop=1;jettySize=auto;html=1;startArrow=openThin;startFill=0;endArrow=ERmany;endFill=0;rounded=0;entryX=1;entryY=0.5;entryDx=0;entryDy=0;exitX=0;exitY=0.5;exitDx=0;exitDy=0;" edge="1" parent="1" source="FmEWhr4WUyYqQKIRgEy8-116" target="FmEWhr4WUyYqQKIRgEy8-118">
          <mxGeometry relative="1" as="geometry">
            <mxPoint x="500" y="-730" as="sourcePoint" />
            <mxPoint x="270" y="-760" as="targetPoint" />
            <Array as="points">
              <mxPoint x="380" y="-770" />
            </Array>
          </mxGeometry>
        </mxCell>
        <mxCell id="FmEWhr4WUyYqQKIRgEy8-123" style="edgeStyle=elbowEdgeStyle;sketch=1;orthogonalLoop=1;jettySize=auto;html=1;startArrow=ERmany;startFill=0;endArrow=ERmany;endFill=0;rounded=0;exitX=0.5;exitY=0;exitDx=0;exitDy=0;entryX=0.5;entryY=1;entryDx=0;entryDy=0;" edge="1" parent="1" source="FmEWhr4WUyYqQKIRgEy8-118" target="FmEWhr4WUyYqQKIRgEy8-114">
          <mxGeometry relative="1" as="geometry">
            <mxPoint x="179.6400000000002" y="-730.0000000000001" as="sourcePoint" />
            <mxPoint x="180" y="-880" as="targetPoint" />
            <Array as="points">
              <mxPoint x="179.64" y="-840" />
            </Array>
          </mxGeometry>
        </mxCell>
      </root>
    </mxGraphModel>
  </diagram>
</mxfile>
